<?xml version="1.0" standalone="no"?>
<!DOCTYPE svg PUBLIC "-//W3C//DTD SVG 20010904//EN"
 "http://www.w3.org/TR/2001/REC-SVG-20010904/DTD/svg10.dtd">
<svg version="1.0" xmlns="http://www.w3.org/2000/svg"
 width="700.000000pt" height="700.000000pt" viewBox="0 0 700.000000 700.000000"
 preserveAspectRatio="xMidYMid meet">
<metadata>
Created by potrace 1.11, written by Peter Selinger 2001-2013
</metadata>
<g transform="translate(0.000000,700.000000) scale(0.100000,-0.100000)"
fill="#000000" stroke="none">
<path d="M3215 6989 c-720 -62 -1384 -330 -1944 -786 -134 -110 -361 -336
-474 -474 -877 -1072 -1045 -2553 -431 -3789 672 -1352 2129 -2116 3629 -1904
1148 162 2137 880 2645 1919 98 200 171 387 224 575 285 1013 113 2088 -472
2945 -173 255 -436 542 -663 728 -642 523 -1429 802 -2249 796 -91 -1 -210 -6
-265 -10z m2385 -1816 c0 -127 -57 -339 -126 -474 -121 -234 -313 -377 -599
-442 -87 -20 -126 -21 -1305 -27 -1126 -6 -1219 -7 -1275 -24 -162 -48 -294
-128 -406 -243 -91 -94 -120 -133 -165 -215 l-34 -63 0 323 c0 287 2 335 20
423 90 440 358 708 768 768 31 5 747 9 1590 10 l1532 1 0 -37z m0 -1220 c0
-97 -45 -295 -91 -403 -117 -276 -319 -441 -634 -517 -63 -15 -192 -17 -1285
-23 l-1215 -5 -79 -23 c-245 -69 -449 -234 -578 -467 l-28 -50 0 323 c0 286 2
335 20 423 52 255 171 462 339 590 123 93 283 157 446 178 39 4 753 9 1588 10
l1517 1 0 -37z m-1764 -1255 c-40 -428 -251 -733 -589 -849 -162 -56 -211 -59
-916 -59 l-644 0 7 83 c19 245 119 471 280 633 156 156 325 232 566 254 47 4
359 8 694 9 l609 1 -7 -72z"/>
</g>
</svg>
