<svg width="108" height="44" viewBox="0 0 108 44" fill="none" xmlns="http://www.w3.org/2000/svg">
<rect x="0.588379" width="107.412" height="44" rx="22" fill="black"/>
<path d="M30.0409 18.169H31.3335C31.575 15.8821 29.9699 14.2486 27.2568 14.2486C24.5651 14.2486 22.2497 15.8395 21.8449 18.2045C21.5395 20.0724 22.6617 21.2372 24.8279 21.9048L26.4898 22.4162C28.2156 22.9418 29.3449 23.6307 29.0892 25.1151C28.8051 26.8622 27.0367 28.0341 24.8563 28.0341C22.896 28.0341 21.504 27.0895 21.6531 25.3636H20.2895C20.0693 27.6648 21.6886 29.2486 24.6574 29.2486C27.8463 29.2486 29.977 27.4943 30.3747 25.1364C30.7796 22.7216 28.8264 21.7557 27.0793 21.2372L25.6091 20.7969C24.2739 20.3991 22.896 19.6818 23.1517 18.1477C23.4074 16.5852 25.0054 15.4418 27.0296 15.4418C28.9614 15.4418 30.1048 16.4645 30.0409 18.169ZM32.6759 29H33.9472L35.7654 18.0909H34.494L32.6759 29ZM35.5878 16.1946C36.0992 16.1946 36.5324 15.7898 36.5466 15.3068C36.5608 14.7955 36.1347 14.3764 35.6091 14.3764C35.0977 14.3764 34.6645 14.7812 34.6503 15.2642C34.6361 15.7756 35.0551 16.1946 35.5878 16.1946ZM40.7707 33.3182C43.3488 33.3182 45.4582 32.0611 45.9269 29.2841L47.7735 18.0909H46.5377L46.1968 20.1719H46.069C45.7849 19.1918 45.0889 17.9418 43.086 17.9418C40.3872 17.9418 38.1997 20.2003 37.6599 23.517C37.0988 26.8622 38.64 28.8864 41.2536 28.8864C43.2139 28.8864 44.3644 27.75 44.9468 26.7486H45.0605L44.6769 29.206C44.336 31.2372 42.8303 32.1818 40.9056 32.1818C39.0235 32.1818 38.3204 31.2869 38.0008 30.456L36.8502 31.1307C37.2906 32.3736 38.5335 33.3182 40.7707 33.3182ZM41.5377 27.7287C39.3644 27.7287 38.5122 25.9957 38.9241 23.4957C39.336 21.0384 40.7991 19.0923 43.0008 19.0923C45.1315 19.0923 46.0548 20.9389 45.6286 23.4957C45.1954 26.1307 43.6329 27.7287 41.5377 27.7287ZM51.6957 22.1818C52.0296 20.2784 53.4784 19.1065 55.1972 19.1065C56.8875 19.1065 57.7469 20.2287 57.4557 22.0114L56.2909 29H57.5551L58.7412 21.9332C59.1673 19.348 57.8889 17.9489 55.7014 17.9489C54.1034 17.9489 52.8605 18.6875 52.1787 19.8026H52.0651L52.3492 18.0909H51.1205L49.3023 29H50.5665L51.6957 22.1818ZM74.1301 24.831C73.7962 26.8338 72.1201 27.9134 70.6428 27.9134C69.0732 27.9134 68.157 26.7841 68.4269 25.0795L69.5917 18.0909H68.3275L67.1414 25.1577C66.7153 27.7429 67.9724 29.142 70.0676 29.142C71.6656 29.142 72.9653 28.3111 73.6471 27.1889H73.7394L73.4411 29H74.7053L76.5235 18.0909H75.2593L74.1301 24.831ZM77.3492 33.0909H78.6205L79.6432 26.9759H79.7568C80.0409 27.9773 80.7583 29.2273 82.7398 29.2273C85.4102 29.2273 87.6048 26.9545 88.1659 23.5739C88.7199 20.2003 87.2923 17.9418 84.5935 17.9418C82.5835 17.9418 81.4898 19.1918 80.8932 20.1719H80.7369L81.0779 18.0909H79.8492L77.3492 33.0909ZM80.1901 23.5526C80.6162 20.9389 82.1574 19.0923 84.2881 19.0923C86.4898 19.0923 87.2994 21.0384 86.8946 23.5526C86.4685 26.0952 84.9273 28.0696 82.754 28.0696C80.6446 28.0696 79.7639 26.1875 80.1901 23.5526Z" fill="white"/>
</svg>
