<svg width="402" height="506" viewBox="0 0 402 506" fill="none" xmlns="http://www.w3.org/2000/svg">
<circle cx="78.3643" cy="468.991" r="3.5" fill="black"/>
<circle cx="32.2695" cy="462.991" r="3.5" fill="black"/>
<path d="M4 206.943L37.6966 75.5043L95.0278 44.4864M4 206.943L36.1473 243.001M4 206.943L67.9073 190.658M36.1473 243.001L4 344.972M36.1473 243.001L51.64 239.899M4 344.972L23.3659 343.421M4 344.972L46.9922 365.134M23.3659 343.421L51.64 239.899M23.3659 343.421L83.0127 341.483M23.3659 343.421L65.1961 365.134M51.64 239.899L91.921 255.796M51.64 239.899L67.9073 190.658M83.0127 341.483L65.1961 365.134M83.0127 341.483L91.921 255.796M65.1961 365.134H46.9922M65.1961 365.134L78.3649 469.819M46.9922 365.134L31.4995 463.228M91.921 255.796L189.138 239.899M91.921 255.796L204.243 279.059M91.921 255.796L151.955 194.148M31.4995 463.228L50.8654 495.409L92.3083 502M31.4995 463.228L78.3649 469.819M92.3083 502L78.3649 469.819M92.3083 502L342.902 358.155M78.3649 469.819L204.243 279.059M204.243 279.059L336.705 236.022M204.243 279.059L342.902 358.155M204.243 279.059L189.138 239.899M336.705 236.022L189.138 239.899M336.705 236.022L340.522 311.24M336.705 236.022V190.658L363.818 167.007M336.705 236.022L363.818 167.007M336.705 236.022L380.472 284.487M342.902 358.155L340.522 311.24M189.138 239.899L151.955 194.148M268.15 16.5703L171.708 3L95.0278 44.4864M268.15 16.5703L341.353 34.0179L375.437 90.2378L401 159.64L396.352 213.146M268.15 16.5703L189.138 53.7918L151.955 194.148M396.352 213.146L401 243.001L380.472 284.487M396.352 213.146L391.317 178.639M380.472 284.487L340.522 311.24M380.472 284.487L391.317 178.639M363.818 167.007L391.317 178.639M67.9073 190.658L151.955 194.148M67.9073 190.658L95.0278 44.4864M151.955 194.148L95.0278 44.4864" stroke="black"/>
<circle cx="4.5" cy="207.5" r="3.5" fill="black"/>
<circle cx="68.5" cy="190.5" r="3.5" fill="black"/>
<circle cx="152.162" cy="194" r="3.5" fill="black"/>
<circle cx="92.4697" cy="255.5" r="3.5" fill="black"/>
<circle cx="189.253" cy="54.3868" r="3.5" fill="black"/>
<circle cx="267.448" cy="16.2009" r="3.5" fill="black"/>
<circle cx="37.5" cy="75.5" r="3.5" fill="black"/>
<circle cx="95.5" cy="44.5" r="3.5" fill="black"/>
<circle cx="171.5" cy="3.5" r="3.5" fill="black"/>
<circle cx="204.329" cy="279.5" r="3.5" fill="black"/>
<circle cx="47.0857" cy="365.641" r="3.5" fill="black"/>
<circle cx="65.3215" cy="365.641" r="3.5" fill="black"/>
<circle cx="4" cy="345" r="3.5" fill="black"/>
<circle cx="24.4993" cy="343.5" r="3.5" fill="black"/>
<circle cx="36.1162" cy="242.944" r="3.5" fill="black"/>
<circle cx="52.3948" cy="240.5" r="3.5" fill="black"/>
<circle cx="82.3354" cy="341.074" r="3.5" fill="black"/>
<circle cx="50.7085" cy="495.427" r="3.5" fill="black"/>
<circle cx="91.8198" cy="502" r="3.5" fill="black"/>
</svg>
