<svg width="89" height="90" viewBox="0 0 89 90" fill="none" xmlns="http://www.w3.org/2000/svg">
<circle cx="44.5" cy="45" r="44.5" fill="#FF5C5C"/>
<circle cx="59.5049" cy="31.9952" r="4" transform="rotate(45 59.5049 31.9952)" fill="white"/>
<circle cx="59.5049" cy="58.0048" r="4" transform="rotate(45 59.5049 58.0048)" fill="white"/>
<circle cx="29.4956" cy="58.0048" r="4" transform="rotate(45 29.4956 58.0048)" fill="white"/>
<circle cx="29.4956" cy="31.9952" r="4" transform="rotate(45 29.4956 31.9952)" fill="white"/>
<path fill-rule="evenodd" clip-rule="evenodd" d="M46.9867 31.4086C47.1496 31.2303 47.3153 31.049 47.4782 30.863C48.1454 30.2737 48.6364 29.4897 48.8624 28.5998C48.9525 28.2877 49.0037 27.958 49.0037 27.607C49.0037 27.5748 49.0026 27.543 49.0004 27.5115L49.0005 27.489C49.0005 25.0037 46.9858 22.989 44.5005 22.989C42.0152 22.989 40.0005 25.0037 40.0005 27.489C40.0005 29.074 40.8199 30.4676 42.0582 31.2693C42.1257 31.3366 42.193 31.4034 42.2598 31.4697C43.1227 32.3261 43.9062 33.1037 43.9062 33.9961L43.9063 34.0157C38.1897 34.3198 33.6313 38.9884 33.5028 44.75H33.492C30.4617 44.75 29.025 43.5484 27.6773 42.4212C26.4869 41.4256 25.366 40.488 23.2775 40.488C23.1044 40.488 22.9385 40.5016 22.7795 40.5275C20.5299 40.7766 18.7803 42.684 18.7803 45C18.7803 47.4853 20.795 49.5 23.2803 49.5C23.8537 49.5 24.402 49.3928 24.9064 49.1972C25.9409 48.8661 26.721 48.2385 27.54 47.5796C28.9316 46.46 30.4358 45.25 33.492 45.25H33.5028C33.6312 51.0075 38.1833 55.6736 43.8942 55.9836C43.7927 56.7972 43.0605 57.5239 42.2598 58.3185C41.8438 58.7313 41.4094 59.1625 41.0353 59.6336C40.9084 59.7866 40.7914 59.9482 40.6854 60.1173C40.3243 60.6725 40.0699 61.286 40.0299 61.9874C40.0105 62.1572 40.0005 62.3298 40.0005 62.5048C40.0005 64.9901 42.0152 67.0048 44.5005 67.0048C46.9858 67.0048 49.0005 64.9901 49.0005 62.5048C49.0005 62.443 48.9992 62.3814 48.9968 62.3201C49.0014 62.2745 49.0037 62.2282 49.0037 62.1812C49.0037 60.5865 47.9463 59.4296 46.9864 58.3794C46.2373 57.5597 45.5476 56.8051 45.4664 55.9581C51.0072 55.4759 55.3716 50.8858 55.4972 45.25H55.76C58.8162 45.25 60.3203 46.46 61.712 47.5796L61.712 47.5797L61.7121 47.5797C62.0514 47.8527 62.3841 48.1203 62.7309 48.3637C63.5258 49.0706 64.5728 49.5 65.7202 49.5C68.2055 49.5 70.2202 47.4853 70.2202 45C70.2202 43.0223 68.9444 41.3425 67.1709 40.7389C66.8186 40.5776 66.42 40.488 65.9745 40.488C65.8054 40.488 65.6427 40.4942 65.4857 40.506C65.1181 40.5249 64.7622 40.5879 64.4231 40.6898C63.2519 41.0183 62.4313 41.7047 61.5746 42.4212C60.2269 43.5484 58.7903 44.75 55.76 44.75H55.4972C55.3714 39.1114 51.0029 34.5196 45.4581 34.0411L45.4584 33.9961C45.4584 33.0808 46.1887 32.2817 46.9864 31.4088L46.9867 31.4086Z" fill="white"/>
</svg>
