<svg width="90" height="90" viewBox="0 0 90 90" fill="none" xmlns="http://www.w3.org/2000/svg">
<circle cx="44.5312" cy="44.9969" r="44.5" fill="#FF5C5C"/>
<path d="M69.2518 40.5446C69.6335 42.3248 69.8344 44.172 69.8344 46.0661C69.8344 60.5436 58.098 72.2799 43.6206 72.2799C29.1431 72.2799 17.4067 60.5436 17.4067 46.0661C17.4067 31.5886 29.1431 19.8523 43.6206 19.8523C45.5025 19.8523 47.338 20.0506 49.1076 20.4275" stroke="white" stroke-width="3" stroke-linecap="round"/>
<path fill-rule="evenodd" clip-rule="evenodd" d="M65.9349 18.6955C65.8545 18.2577 65.5379 17.9005 65.1128 17.7682C64.6877 17.6358 64.2244 17.7501 63.9096 18.0649L58.2083 23.7662C57.9298 24.0447 57.806 24.4423 57.8771 24.8297L58.5802 28.6576L54.8215 32.6042C51.7766 30.074 47.8636 28.5525 43.5952 28.5525C33.8882 28.5525 26.019 36.4216 26.019 46.1286C26.019 55.8357 33.8882 63.7048 43.5952 63.7048C53.3023 63.7048 61.1714 55.8357 61.1714 46.1286C61.1714 41.5522 59.4223 37.3842 56.5562 34.2568L59.9854 30.6561L64.5402 31.4928C64.9276 31.5639 65.3252 31.4401 65.6037 31.1616L71.305 25.4604C71.6198 25.1456 71.7341 24.6822 71.6018 24.2571C71.4694 23.8321 71.1122 23.5155 70.6744 23.435L66.6703 22.6996L65.9349 18.6955ZM46.5037 44.8119L56.5562 34.2568C56.0162 33.6676 55.4365 33.1153 54.8215 32.6042L44.769 43.1594C44.4056 43.0156 44.0095 42.9366 43.595 42.9366C41.8321 42.9366 40.4029 44.3657 40.4029 46.1286C40.4029 47.8915 41.8321 49.3207 43.595 49.3207C45.3579 49.3207 46.787 47.8915 46.787 46.1286C46.787 45.6592 46.6857 45.2134 46.5037 44.8119ZM46.5037 44.8119L44.4628 46.9548C44.0066 47.4339 43.2483 47.4524 42.7692 46.9961C42.2901 46.5398 42.2716 45.7816 42.7279 45.3025L44.769 43.1594C45.5394 43.4642 46.1629 44.0603 46.5037 44.8119ZM60.969 28.4008L60.3473 25.0156L63.9906 21.3722L64.4631 23.945C64.553 24.4342 64.9358 24.8169 65.4249 24.9068L67.9977 25.3794L64.3544 29.0227L60.969 28.4008Z" fill="white"/>
</svg>
