
<svg width="90" height="90" viewBox="0 0 90 90" fill="none" xmlns="http://www.w3.org/2000/svg">
<circle cx="44.7402" cy="44.9969" r="44.5" fill="#FF5C5C"/>
<path fill-rule="evenodd" clip-rule="evenodd" d="M35.3066 45.96L32.6525 43.3059L40.9608 40.3059L35.3066 45.96ZM48.9466 59.6L51.6008 62.2541L54.6008 53.9459L48.9466 59.6Z" fill="white"/>
<path d="M20.4948 56.4228L22.1089 54.8087" stroke="white" stroke-width="2" stroke-linecap="round"/>
<path fill-rule="evenodd" clip-rule="evenodd" d="M31.1738 77.3936L39.0708 69.4965L45.3967 63.1707C39.3154 60.4475 34.4193 55.5515 31.6962 49.4702L25.3704 55.796L15.9966 65.1699C16.5503 65.9573 17.1355 66.721 17.7504 67.4591L23.2722 61.9373C23.6627 61.5467 24.2959 61.5467 24.6864 61.9373C25.0769 62.3278 25.0769 62.9609 24.6864 63.3515L19.0762 68.9616C19.5314 69.4489 20.0002 69.9232 20.4823 70.3839L22.5651 68.3012C22.9556 67.9107 23.5887 67.9107 23.9792 68.3012C24.3698 68.6917 24.3698 69.3249 23.9792 69.7154L21.9686 71.726C22.4786 72.161 23.0012 72.5816 23.5359 72.9872L26.1006 70.4225C26.4911 70.032 27.1243 70.032 27.5148 70.4225C27.9054 70.8131 27.9054 71.4462 27.5148 71.8367L25.1858 74.1658C25.7527 74.5466 26.3312 74.9112 26.9208 75.2592L30.3433 71.8367C30.7338 71.4462 31.3669 71.4462 31.7574 71.8367C32.1479 72.2272 32.1479 72.8604 31.7574 73.2509L28.7446 76.2637C29.5374 76.6701 30.3477 77.0471 31.1738 77.3936ZM52.4016 28.7393C52.2039 28.9369 52.0115 29.1378 51.8245 29.342L35.2471 45.9193C37.5098 52.2996 42.5674 57.3571 48.9476 59.6197L65.5273 43.0399C65.7299 42.8529 65.9298 42.6611 66.1267 42.4644C71.1968 37.3942 72.8578 30.2077 71.1068 23.7591C64.6583 22.0082 57.4717 23.6691 52.4016 28.7393ZM33.0153 64.9221C33.4058 65.3126 33.4058 65.9458 33.0153 66.3363L29.8618 69.4897C29.4713 69.8802 28.8381 69.8802 28.4476 69.4897C28.0571 69.0992 28.0571 68.466 28.4476 68.0755L31.601 64.9221C31.9916 64.5316 32.6248 64.5316 33.0153 64.9221ZM29.5997 58.4381C29.9902 58.0476 29.9902 57.4144 29.5997 57.0239C29.2092 56.6334 28.576 56.6334 28.1855 57.0239L27.1534 58.056C26.7629 58.4465 26.7629 59.0797 27.1534 59.4702C27.5439 59.8607 28.1771 59.8607 28.5676 59.4702L29.5997 58.4381ZM31.4165 60.864C31.8071 61.2545 31.8071 61.8876 31.4165 62.2781L26.1418 67.5529C25.7513 67.9434 25.1182 67.9434 24.7277 67.5529C24.3372 67.1623 24.3372 66.5291 24.7277 66.1386L30.0023 60.864C30.3928 60.4734 31.026 60.4734 31.4165 60.864Z" fill="white"/>
<path fill-rule="evenodd" clip-rule="evenodd" d="M14.8687 63.4627L17.8659 60.4655C18.2564 60.075 18.2564 59.4418 17.8659 59.0513C17.4753 58.6608 16.8422 58.6608 16.4516 59.0513L13.8311 61.6719C14.1597 62.2799 14.5058 62.877 14.8687 63.4627Z" fill="white"/>
<path fill-rule="evenodd" clip-rule="evenodd" d="M35.3804 78.8491C34.6516 78.6481 33.9322 78.4241 33.2231 78.178L40.2289 71.1723C40.6194 70.7818 41.2526 70.7818 41.6431 71.1723C42.0336 71.5628 42.0336 72.196 41.6431 72.5865L35.3804 78.8491Z" fill="white"/>
</svg>

