<svg width="60" height="59" viewBox="0 0 60 59" fill="none" xmlns="http://www.w3.org/2000/svg">
<g clip-path="url(#clip0)">
<path d="M59.1248 29.0938C59.1248 13.0775 45.9171 0.09375 29.6247 0.09375C13.3323 0.09375 0.124756 13.0775 0.124756 29.0938C0.124756 45.11 13.3323 58.0938 29.6247 58.0938C45.9171 58.0938 59.1248 45.11 59.1248 29.0938Z" fill="black"/>
<path d="M22.5816 14.9089C14.2826 14.9089 14.3345 23.0163 14.3345 23.0163V27.6479C14.3345 27.6479 16.2239 23.0163 21.4553 23.0163H21.9631H39.0759C47.51 23.0163 47.3245 14.9973 47.3226 14.922H47.3025L47.323 14.9094H42.928H32.2607L22.5816 14.9089ZM22.5816 25.0435C14.2826 25.0435 14.3345 33.1509 14.3345 33.1509V37.7825C14.3345 37.7825 16.2239 33.1509 21.4553 33.1509H21.9631H39.0759C47.51 33.1509 47.3245 25.1319 47.3226 25.0566H47.3025L47.323 25.0439H42.928C42.928 25.0439 35.6518 25.044 32.2607 25.0439C28.8696 25.0439 22.5816 25.0435 22.5816 25.0435V25.0435Z" fill="white"/>
<path d="M22.5816 35.1713C14.2827 35.1713 14.3345 43.2787 14.3345 43.2787H24.0249H24.231C32.6652 43.2787 32.4797 35.2597 32.4778 35.1844H32.4576L32.4781 35.1717H28.0832H22.5703L22.5816 35.1713Z" fill="white"/>
</g>
<defs>
<clipPath id="clip0">
<rect width="59" height="58" fill="white" transform="translate(0.124756 0.09375)"/>
</clipPath>
</defs>
</svg>
